<mxfile host="app.diagrams.net" modified="2022-02-17T13:38:23.143Z" agent="5.0 (Windows NT 10.0; Win64; x64) AppleWebKit/537.36 (KHTML, like Gecko) Chrome/98.0.4758.87 Safari/537.36" etag="PTQ2ONLDYDLvBhEGHveH" version="16.5.6" type="github">
  <diagram id="9ESFLjiQqujIBO18Mi42" name="Page-1">
    <mxGraphModel dx="1422" dy="798" grid="1" gridSize="10" guides="1" tooltips="1" connect="1" arrows="1" fold="1" page="1" pageScale="1" pageWidth="1654" pageHeight="2336" math="0" shadow="0">
      <root>
        <mxCell id="0" />
        <mxCell id="1" parent="0" />
        <mxCell id="rX0tXzBtABu1uDRIpQFG-1" value="프로필 아바타 클릭" style="rounded=0;whiteSpace=wrap;html=1;" vertex="1" parent="1">
          <mxGeometry x="70" y="230" width="120" height="60" as="geometry" />
        </mxCell>
        <mxCell id="rX0tXzBtABu1uDRIpQFG-2" value="" style="endArrow=classic;html=1;rounded=0;" edge="1" parent="1">
          <mxGeometry width="50" height="50" relative="1" as="geometry">
            <mxPoint x="190" y="259.5" as="sourcePoint" />
            <mxPoint x="240" y="260" as="targetPoint" />
          </mxGeometry>
        </mxCell>
        <mxCell id="rX0tXzBtABu1uDRIpQFG-13" style="edgeStyle=elbowEdgeStyle;rounded=0;orthogonalLoop=1;jettySize=auto;html=1;" edge="1" parent="1" source="rX0tXzBtABu1uDRIpQFG-3">
          <mxGeometry relative="1" as="geometry">
            <mxPoint x="400" y="520" as="targetPoint" />
          </mxGeometry>
        </mxCell>
        <mxCell id="rX0tXzBtABu1uDRIpQFG-103" value="" style="edgeStyle=elbowEdgeStyle;rounded=0;orthogonalLoop=1;jettySize=auto;elbow=vertical;html=1;" edge="1" parent="1" source="rX0tXzBtABu1uDRIpQFG-3" target="rX0tXzBtABu1uDRIpQFG-102">
          <mxGeometry relative="1" as="geometry" />
        </mxCell>
        <mxCell id="rX0tXzBtABu1uDRIpQFG-3" value="프로필 페이지" style="whiteSpace=wrap;html=1;aspect=fixed;" vertex="1" parent="1">
          <mxGeometry x="240" y="230" width="70" height="70" as="geometry" />
        </mxCell>
        <mxCell id="rX0tXzBtABu1uDRIpQFG-4" value="" style="endArrow=classic;html=1;rounded=0;" edge="1" parent="1" target="rX0tXzBtABu1uDRIpQFG-5">
          <mxGeometry width="50" height="50" relative="1" as="geometry">
            <mxPoint x="310" y="270" as="sourcePoint" />
            <mxPoint x="370" y="270" as="targetPoint" />
          </mxGeometry>
        </mxCell>
        <mxCell id="rX0tXzBtABu1uDRIpQFG-5" value="닉네임 수정란" style="rounded=0;whiteSpace=wrap;html=1;" vertex="1" parent="1">
          <mxGeometry x="380" y="240" width="120" height="60" as="geometry" />
        </mxCell>
        <mxCell id="rX0tXzBtABu1uDRIpQFG-6" value="" style="endArrow=classic;html=1;rounded=0;" edge="1" parent="1">
          <mxGeometry width="50" height="50" relative="1" as="geometry">
            <mxPoint x="440" y="300" as="sourcePoint" />
            <mxPoint x="440" y="360" as="targetPoint" />
          </mxGeometry>
        </mxCell>
        <mxCell id="rX0tXzBtABu1uDRIpQFG-7" value="&lt;div style=&quot;text-align: center&quot;&gt;&lt;span&gt;&lt;font face=&quot;helvetica&quot;&gt;닉네임이 비어있거나 2자 이하인 경우&lt;/font&gt;&lt;/span&gt;&lt;/div&gt;" style="text;whiteSpace=wrap;html=1;" vertex="1" parent="1">
          <mxGeometry x="510" y="300" width="100" height="50" as="geometry" />
        </mxCell>
        <mxCell id="rX0tXzBtABu1uDRIpQFG-108" value="" style="edgeStyle=elbowEdgeStyle;rounded=0;orthogonalLoop=1;jettySize=auto;elbow=vertical;html=1;" edge="1" parent="1" source="rX0tXzBtABu1uDRIpQFG-9">
          <mxGeometry relative="1" as="geometry">
            <mxPoint x="560" y="395" as="targetPoint" />
          </mxGeometry>
        </mxCell>
        <mxCell id="rX0tXzBtABu1uDRIpQFG-113" value="" style="edgeStyle=elbowEdgeStyle;rounded=0;orthogonalLoop=1;jettySize=auto;elbow=vertical;html=1;" edge="1" parent="1" source="rX0tXzBtABu1uDRIpQFG-9" target="rX0tXzBtABu1uDRIpQFG-112">
          <mxGeometry relative="1" as="geometry" />
        </mxCell>
        <mxCell id="rX0tXzBtABu1uDRIpQFG-9" value="닉네임 체크" style="ellipse;whiteSpace=wrap;html=1;" vertex="1" parent="1">
          <mxGeometry x="390" y="360" width="100" height="60" as="geometry" />
        </mxCell>
        <mxCell id="rX0tXzBtABu1uDRIpQFG-11" value="" style="endArrow=classic;html=1;rounded=0;entryX=1;entryY=0.5;entryDx=0;entryDy=0;" edge="1" parent="1" target="rX0tXzBtABu1uDRIpQFG-5">
          <mxGeometry width="50" height="50" relative="1" as="geometry">
            <mxPoint x="490" y="390" as="sourcePoint" />
            <mxPoint x="540" y="270" as="targetPoint" />
            <Array as="points">
              <mxPoint x="540" y="390" />
            </Array>
          </mxGeometry>
        </mxCell>
        <mxCell id="rX0tXzBtABu1uDRIpQFG-16" value="" style="edgeStyle=elbowEdgeStyle;rounded=0;orthogonalLoop=1;jettySize=auto;html=1;" edge="1" parent="1" source="rX0tXzBtABu1uDRIpQFG-14" target="rX0tXzBtABu1uDRIpQFG-15">
          <mxGeometry relative="1" as="geometry" />
        </mxCell>
        <mxCell id="rX0tXzBtABu1uDRIpQFG-14" value="비밀번호 수정란" style="rounded=0;whiteSpace=wrap;html=1;" vertex="1" parent="1">
          <mxGeometry x="400" y="490" width="120" height="60" as="geometry" />
        </mxCell>
        <mxCell id="rX0tXzBtABu1uDRIpQFG-105" value="" style="edgeStyle=elbowEdgeStyle;rounded=0;orthogonalLoop=1;jettySize=auto;elbow=vertical;html=1;" edge="1" parent="1" source="rX0tXzBtABu1uDRIpQFG-15" target="rX0tXzBtABu1uDRIpQFG-104">
          <mxGeometry relative="1" as="geometry" />
        </mxCell>
        <mxCell id="rX0tXzBtABu1uDRIpQFG-15" value="비밀번호 체크" style="rounded=0;whiteSpace=wrap;html=1;" vertex="1" parent="1">
          <mxGeometry x="400" y="630" width="120" height="60" as="geometry" />
        </mxCell>
        <mxCell id="rX0tXzBtABu1uDRIpQFG-19" value="" style="endArrow=classic;html=1;rounded=0;entryX=1;entryY=0.5;entryDx=0;entryDy=0;" edge="1" parent="1">
          <mxGeometry width="50" height="50" relative="1" as="geometry">
            <mxPoint x="520" y="650" as="sourcePoint" />
            <mxPoint x="530" y="530" as="targetPoint" />
            <Array as="points">
              <mxPoint x="570" y="650" />
            </Array>
          </mxGeometry>
        </mxCell>
        <mxCell id="rX0tXzBtABu1uDRIpQFG-20" value="&lt;div style=&quot;text-align: center&quot;&gt;&lt;font face=&quot;helvetica&quot;&gt;새 비밀번호와 맞지 않는 경우&lt;/font&gt;&lt;/div&gt;" style="text;whiteSpace=wrap;html=1;" vertex="1" parent="1">
          <mxGeometry x="560" y="560" width="100" height="50" as="geometry" />
        </mxCell>
        <mxCell id="rX0tXzBtABu1uDRIpQFG-92" style="edgeStyle=elbowEdgeStyle;rounded=0;orthogonalLoop=1;jettySize=auto;html=1;" edge="1" parent="1">
          <mxGeometry relative="1" as="geometry">
            <mxPoint x="400" y="790" as="targetPoint" />
            <mxPoint x="310" y="290" as="sourcePoint" />
          </mxGeometry>
        </mxCell>
        <mxCell id="rX0tXzBtABu1uDRIpQFG-95" value="" style="edgeStyle=elbowEdgeStyle;rounded=0;orthogonalLoop=1;jettySize=auto;elbow=vertical;html=1;" edge="1" parent="1" source="rX0tXzBtABu1uDRIpQFG-93" target="rX0tXzBtABu1uDRIpQFG-94">
          <mxGeometry relative="1" as="geometry" />
        </mxCell>
        <mxCell id="rX0tXzBtABu1uDRIpQFG-93" value="파일 업로드" style="rounded=0;whiteSpace=wrap;html=1;" vertex="1" parent="1">
          <mxGeometry x="400" y="760" width="120" height="60" as="geometry" />
        </mxCell>
        <mxCell id="rX0tXzBtABu1uDRIpQFG-111" value="" style="edgeStyle=elbowEdgeStyle;rounded=0;orthogonalLoop=1;jettySize=auto;elbow=vertical;html=1;" edge="1" parent="1" source="rX0tXzBtABu1uDRIpQFG-94" target="rX0tXzBtABu1uDRIpQFG-110">
          <mxGeometry relative="1" as="geometry" />
        </mxCell>
        <mxCell id="rX0tXzBtABu1uDRIpQFG-94" value="파일 체크" style="rounded=0;whiteSpace=wrap;html=1;" vertex="1" parent="1">
          <mxGeometry x="400" y="900" width="120" height="60" as="geometry" />
        </mxCell>
        <mxCell id="rX0tXzBtABu1uDRIpQFG-98" value="" style="endArrow=classic;html=1;rounded=0;entryX=1;entryY=0.5;entryDx=0;entryDy=0;" edge="1" parent="1">
          <mxGeometry width="50" height="50" relative="1" as="geometry">
            <mxPoint x="520" y="920" as="sourcePoint" />
            <mxPoint x="520" y="800" as="targetPoint" />
            <Array as="points">
              <mxPoint x="560" y="920" />
            </Array>
          </mxGeometry>
        </mxCell>
        <mxCell id="rX0tXzBtABu1uDRIpQFG-99" style="edgeStyle=elbowEdgeStyle;rounded=0;orthogonalLoop=1;jettySize=auto;elbow=vertical;html=1;exitX=0.5;exitY=0;exitDx=0;exitDy=0;entryX=0.6;entryY=0;entryDx=0;entryDy=0;entryPerimeter=0;" edge="1" parent="1" source="rX0tXzBtABu1uDRIpQFG-20" target="rX0tXzBtABu1uDRIpQFG-20">
          <mxGeometry relative="1" as="geometry" />
        </mxCell>
        <mxCell id="rX0tXzBtABu1uDRIpQFG-101" value="&lt;div style=&quot;text-align: center&quot;&gt;&lt;font face=&quot;helvetica&quot;&gt;파일 용량이 너무 크거나 화질 저하로 인한 인식이 불가능한 경우&lt;/font&gt;&lt;/div&gt;" style="text;whiteSpace=wrap;html=1;" vertex="1" parent="1">
          <mxGeometry x="550" y="810" width="100" height="50" as="geometry" />
        </mxCell>
        <mxCell id="rX0tXzBtABu1uDRIpQFG-116" value="" style="edgeStyle=elbowEdgeStyle;rounded=0;orthogonalLoop=1;jettySize=auto;elbow=vertical;html=1;" edge="1" parent="1" source="rX0tXzBtABu1uDRIpQFG-102" target="rX0tXzBtABu1uDRIpQFG-115">
          <mxGeometry relative="1" as="geometry" />
        </mxCell>
        <mxCell id="rX0tXzBtABu1uDRIpQFG-102" value="내 다이어리 보기 클릭" style="rounded=1;whiteSpace=wrap;html=1;" vertex="1" parent="1">
          <mxGeometry x="215" y="385" width="120" height="60" as="geometry" />
        </mxCell>
        <mxCell id="rX0tXzBtABu1uDRIpQFG-104" value="새 비밀번호로 저장" style="ellipse;whiteSpace=wrap;html=1;rounded=0;" vertex="1" parent="1">
          <mxGeometry x="600" y="630" width="120" height="60" as="geometry" />
        </mxCell>
        <mxCell id="rX0tXzBtABu1uDRIpQFG-106" value="&lt;div style=&quot;text-align: center&quot;&gt;&lt;font face=&quot;helvetica&quot;&gt;새 비밀번호와 일치할 경우&lt;/font&gt;&lt;/div&gt;" style="text;whiteSpace=wrap;html=1;" vertex="1" parent="1">
          <mxGeometry x="510" y="660" width="100" height="50" as="geometry" />
        </mxCell>
        <mxCell id="rX0tXzBtABu1uDRIpQFG-109" value="&lt;div style=&quot;text-align: center&quot;&gt;&lt;font face=&quot;helvetica&quot;&gt;닉네임이 2자 이상인 경우&lt;/font&gt;&lt;/div&gt;" style="text;whiteSpace=wrap;html=1;" vertex="1" parent="1">
          <mxGeometry x="470" y="410" width="100" height="50" as="geometry" />
        </mxCell>
        <mxCell id="rX0tXzBtABu1uDRIpQFG-110" value="파일 업로드 성공" style="ellipse;whiteSpace=wrap;html=1;rounded=0;" vertex="1" parent="1">
          <mxGeometry x="600" y="900" width="120" height="60" as="geometry" />
        </mxCell>
        <mxCell id="rX0tXzBtABu1uDRIpQFG-112" value="새로운 닉네임 저장" style="ellipse;whiteSpace=wrap;html=1;" vertex="1" parent="1">
          <mxGeometry x="570" y="360" width="100" height="60" as="geometry" />
        </mxCell>
        <mxCell id="rX0tXzBtABu1uDRIpQFG-114" value="&lt;div style=&quot;text-align: center&quot;&gt;&lt;font face=&quot;helvetica&quot;&gt;파일 용량 및 화질 기준에 맞을 경우&lt;/font&gt;&lt;/div&gt;" style="text;whiteSpace=wrap;html=1;" vertex="1" parent="1">
          <mxGeometry x="510" y="940" width="100" height="50" as="geometry" />
        </mxCell>
        <mxCell id="rX0tXzBtABu1uDRIpQFG-115" value="내 다이어리 디테일 페이지로 이동" style="rounded=1;whiteSpace=wrap;html=1;" vertex="1" parent="1">
          <mxGeometry x="215" y="525" width="120" height="60" as="geometry" />
        </mxCell>
      </root>
    </mxGraphModel>
  </diagram>
</mxfile>
